<svg id="visual" viewBox="0 0 600 900" width="600" height="900" xmlns="http://www.w3.org/2000/svg" xmlns:xlink="http://www.w3.org/1999/xlink" version="1.1"><rect x="0" y="0" width="600" height="900" fill="#001220"></rect><path d="M0 562L14.3 576C28.7 590 57.3 618 85.8 634.2C114.3 650.3 142.7 654.7 171.2 654.3C199.7 654 228.3 649 257 632C285.7 615 314.3 586 343 581.5C371.7 577 400.3 597 428.8 599C457.3 601 485.7 585 514.2 583.2C542.7 581.3 571.3 593.7 585.7 599.8L600 606L600 901L585.7 901C571.3 901 542.7 901 514.2 901C485.7 901 457.3 901 428.8 901C400.3 901 371.7 901 343 901C314.3 901 285.7 901 257 901C228.3 901 199.7 901 171.2 901C142.7 901 114.3 901 85.8 901C57.3 901 28.7 901 14.3 901L0 901Z" fill="#225095"></path><path d="M0 705L14.3 702.8C28.7 700.7 57.3 696.3 85.8 690.8C114.3 685.3 142.7 678.7 171.2 678.3C199.7 678 228.3 684 257 686.5C285.7 689 314.3 688 343 689.8C371.7 691.7 400.3 696.3 428.8 692C457.3 687.7 485.7 674.3 514.2 677C542.7 679.7 571.3 698.3 585.7 707.7L600 717L600 901L585.7 901C571.3 901 542.7 901 514.2 901C485.7 901 457.3 901 428.8 901C400.3 901 371.7 901 343 901C314.3 901 285.7 901 257 901C228.3 901 199.7 901 171.2 901C142.7 901 114.3 901 85.8 901C57.3 901 28.7 901 14.3 901L0 901Z" fill="#1456af"></path><path d="M0 742L14.3 730.8C28.7 719.7 57.3 697.3 85.8 684.5C114.3 671.7 142.7 668.3 171.2 670.3C199.7 672.3 228.3 679.7 257 678.8C285.7 678 314.3 669 343 678.3C371.7 687.7 400.3 715.3 428.8 717.2C457.3 719 485.7 695 514.2 687C542.7 679 571.3 687 585.7 691L600 695L600 901L585.7 901C571.3 901 542.7 901 514.2 901C485.7 901 457.3 901 428.8 901C400.3 901 371.7 901 343 901C314.3 901 285.7 901 257 901C228.3 901 199.7 901 171.2 901C142.7 901 114.3 901 85.8 901C57.3 901 28.7 901 14.3 901L0 901Z" fill="#005cca"></path><path d="M0 774L14.3 769.5C28.7 765 57.3 756 85.8 748.3C114.3 740.7 142.7 734.3 171.2 740.7C199.7 747 228.3 766 257 779.7C285.7 793.3 314.3 801.7 343 795.2C371.7 788.7 400.3 767.3 428.8 754.3C457.3 741.3 485.7 736.7 514.2 744C542.7 751.3 571.3 770.7 585.7 780.3L600 790L600 901L585.7 901C571.3 901 542.7 901 514.2 901C485.7 901 457.3 901 428.8 901C400.3 901 371.7 901 343 901C314.3 901 285.7 901 257 901C228.3 901 199.7 901 171.2 901C142.7 901 114.3 901 85.8 901C57.3 901 28.7 901 14.3 901L0 901Z" fill="#0061e5"></path><path d="M0 818L14.3 821.5C28.7 825 57.3 832 85.8 834.7C114.3 837.3 142.7 835.7 171.2 836.5C199.7 837.3 228.3 840.7 257 835C285.7 829.3 314.3 814.7 343 806.8C371.7 799 400.3 798 428.8 803.7C457.3 809.3 485.7 821.7 514.2 829.8C542.7 838 571.3 842 585.7 844L600 846L600 901L585.7 901C571.3 901 542.7 901 514.2 901C485.7 901 457.3 901 428.8 901C400.3 901 371.7 901 343 901C314.3 901 285.7 901 257 901C228.3 901 199.7 901 171.2 901C142.7 901 114.3 901 85.8 901C57.3 901 28.7 901 14.3 901L0 901Z" fill="#0066ff"></path></svg>